<?xml version="1.0" encoding="iso-8859-1"?>
<!-- Generator: Adobe Illustrator 25.4.1, SVG Export Plug-In . SVG Version: 6.00 Build 0)  -->
<svg version="1.1" baseProfile="basic" id="Layer_1"
	 xmlns="http://www.w3.org/2000/svg" xmlns:xlink="http://www.w3.org/1999/xlink" x="0px" y="0px" viewBox="0 0 100 100"
	 xml:space="preserve">
<path style="fill:none;stroke:#000000;stroke-width:4;stroke-linecap:round;stroke-linejoin:round;stroke-miterlimit:10;" d="
	M14.892,76.236c0,0,25.189,14.458,49.614-1.678c24.425-16.136,18.256-38.169,18.256-38.169l9.012-8.639l-10.49,2.401l8.2-8.653
	l-11.338,3.787c0,0-7.464-8.284-17.345-3.293c-9.881,4.991-9.825,17.237-9.825,17.237s-20.686-0.265-30.972-15.677
	c-5.538,9.444,3.494,20.509,3.494,20.509L13.085,41.38c0,0,3.445,14.126,15.413,16.172c-5.294,2.122-8.837,2.296-8.837,2.296
	s3.088,7.212,16.512,9.969C28.54,75.693,14.892,76.236,14.892,76.236z"/>
<path style="fill-rule:evenodd;clip-rule:evenodd;" d="M61.018,52.336c-0.513-0.202-0.766-0.784-0.563-1.297
	c0.202-0.514,0.784-0.766,1.297-0.563c0.513,0.203,0.766,0.784,0.563,1.297C62.112,52.286,61.531,52.539,61.018,52.336z"/>
<path style="fill-rule:evenodd;clip-rule:evenodd;" d="M71.06,51.73c-0.513-0.202-0.766-0.784-0.563-1.297s0.784-0.766,1.297-0.563
	c0.513,0.202,0.766,0.784,0.563,1.297C72.155,51.68,71.574,51.933,71.06,51.73z"/>
<path style="fill-rule:evenodd;clip-rule:evenodd;" d="M70.689,44.129c-0.513-0.202-0.766-0.784-0.563-1.297
	c0.202-0.513,0.784-0.766,1.297-0.563c0.513,0.202,0.766,0.784,0.563,1.297S71.202,44.332,70.689,44.129z"/>
<line style="fill:none;stroke:#000000;stroke-width:2;stroke-linecap:round;stroke-linejoin:round;stroke-miterlimit:10;" x1="27.337" y1="80.986" x2="29.645" y2="77.94"/>
<line style="fill:none;stroke:#000000;stroke-width:2;stroke-linecap:round;stroke-linejoin:round;stroke-miterlimit:10;" x1="33.092" y1="81.007" x2="34.645" y2="77.429"/>
<line style="fill:none;stroke:#000000;stroke-width:2;stroke-linecap:round;stroke-linejoin:round;stroke-miterlimit:10;" x1="36.845" y1="81.344" x2="38.081" y2="76.384"/>
<line style="fill:none;stroke:#000000;stroke-width:2;stroke-linecap:round;stroke-linejoin:round;stroke-miterlimit:10;" x1="45.937" y1="80.67" x2="44.592" y2="77.342"/>
<line style="fill:none;stroke:#000000;stroke-width:2;stroke-linecap:round;stroke-linejoin:round;stroke-miterlimit:10;" x1="47.447" y1="75.939" x2="50.347" y2="80.029"/>
<line style="fill:none;stroke:#000000;stroke-width:2;stroke-linecap:round;stroke-linejoin:round;stroke-miterlimit:10;" x1="62.394" y1="65.246" x2="70.118" y2="70.598"/>
<line style="fill:none;stroke:#000000;stroke-width:2;stroke-linecap:round;stroke-linejoin:round;stroke-miterlimit:10;" x1="66.693" y1="63.691" x2="73.642" y2="65.986"/>
<line style="fill:none;stroke:#000000;stroke-width:2;stroke-linecap:round;stroke-linejoin:round;stroke-miterlimit:10;" x1="70.993" y1="60.928" x2="76.76" y2="61.733"/>
<line style="fill:none;stroke:#000000;stroke-width:2;stroke-linecap:round;stroke-linejoin:round;stroke-miterlimit:10;" x1="68.893" y1="20.682" x2="66.792" y2="26.23"/>
<line style="fill:none;stroke:#000000;stroke-width:2;stroke-linecap:round;stroke-linejoin:round;stroke-miterlimit:10;" x1="73.74" y1="21.194" x2="70.654" y2="26.186"/>
<line style="fill:none;stroke:#000000;stroke-width:2;stroke-linecap:round;stroke-linejoin:round;stroke-miterlimit:10;" x1="77.066" y1="24.467" x2="73.882" y2="27.828"/>
<line style="fill:none;stroke:#000000;stroke-width:2;stroke-linecap:round;stroke-linejoin:round;stroke-miterlimit:10;" x1="51.78" y1="38.205" x2="57.108" y2="41.186"/>
<line style="fill:none;stroke:#000000;stroke-width:2;stroke-linecap:round;stroke-linejoin:round;stroke-miterlimit:10;" x1="52.371" y1="33.322" x2="57.491" y2="36.694"/>
<line style="fill:none;stroke:#000000;stroke-width:2;stroke-linecap:round;stroke-linejoin:round;stroke-miterlimit:10;" x1="40.871" y1="37.694" x2="39.372" y2="44.057"/>
<line style="fill:none;stroke:#000000;stroke-width:2;stroke-linecap:round;stroke-linejoin:round;stroke-miterlimit:10;" x1="44.329" y1="38.401" x2="42.37" y2="45.46"/>
<line style="fill:none;stroke:#000000;stroke-width:2;stroke-linecap:round;stroke-linejoin:round;stroke-miterlimit:10;" x1="27.226" y1="66.432" x2="32.129" y2="64.789"/>
<line style="fill:none;stroke:#000000;stroke-width:2;stroke-linecap:round;stroke-linejoin:round;stroke-miterlimit:10;" x1="31.866" y1="68.574" x2="37.085" y2="64.768"/>
<line style="fill:none;stroke:#000000;stroke-width:2;stroke-linecap:round;stroke-linejoin:round;stroke-miterlimit:10;" x1="23.124" y1="44.427" x2="25.75" y2="49.148"/>
<line style="fill:none;stroke:#000000;stroke-width:2;stroke-linecap:round;stroke-linejoin:round;stroke-miterlimit:10;" x1="19.556" y1="43.165" x2="21.1" y2="48.278"/>
<line style="fill:none;stroke:#000000;stroke-width:2;stroke-linecap:round;stroke-linejoin:round;stroke-miterlimit:10;" x1="54.11" y1="78.854" x2="51.988" y2="75.949"/>
</svg>